<svg viewBox="0 0 512 512" aria-hidden="true">
  <!-- Icon made by monkik / flaticon.com/authors/monkik - from flaticon.com - licensed CC 3.0 BY -->
  <path d="M183.467 128c-18.825 0-34.133 15.309-34.133 34.133s15.309 34.133 34.133 34.133 34.133-15.309 34.133-34.133S202.291 128 183.467 128zm0 51.2c-9.412 0-17.067-7.654-17.067-17.067 0-9.412 7.654-17.067 17.067-17.067s17.067 7.654 17.067 17.067c-.001 9.413-7.655 17.067-17.067 17.067zM294.4 238.933c-18.825 0-34.133 15.309-34.133 34.133 0 18.825 15.309 34.133 34.133 34.133s34.133-15.309 34.133-34.133c0-18.824-15.308-34.133-34.133-34.133zm0 51.2c-9.412 0-17.067-7.654-17.067-17.067 0-9.412 7.654-17.067 17.067-17.067s17.067 7.654 17.067 17.067-7.655 17.067-17.067 17.067zM168.899 267.03l119.464-119.464 12.068 12.068-119.464 119.465zM192.7 380.646L148.745 483.2l-17.374-34.739c-1.826-3.669-5.99-5.487-9.975-4.395l-43.008 12.288 44.723-111.864-15.846-6.332-51.2 128a8.538 8.538 0 0 0 1.596 8.883 8.571 8.571 0 0 0 8.678 2.492l52.924-15.121 22.434 44.868a8.538 8.538 0 0 0 7.637 4.719h.256a8.52 8.52 0 0 0 7.595-5.171l51.2-119.467-15.685-6.715zm220.544 85.513l-51.2-128-15.846 6.332 44.74 111.846-43.008-12.288a8.534 8.534 0 0 0-9.975 4.395L320.3 483.763l-43.759-94.805-15.497 7.151 51.2 110.933a8.53 8.53 0 0 0 7.62 4.958h.137a8.485 8.485 0 0 0 7.612-4.719l22.434-44.868 52.924 15.121a8.565 8.565 0 0 0 8.678-2.492 8.52 8.52 0 0 0 1.595-8.883z"/>
  <path d="M445.79 207.625l-37.009-40.969 11.546-53.922c.913-4.284-1.562-8.567-5.726-9.907l-52.497-16.922-16.914-52.582c-1.348-4.173-5.641-6.639-9.924-5.726l-53.922 11.622L240.393 2.21c-3.251-2.935-8.201-2.944-11.443 0l-40.96 37.009-53.922-11.622a8.532 8.532 0 0 0-9.924 5.726l-16.922 52.574-52.574 16.922a8.545 8.545 0 0 0-5.726 9.924l11.622 53.922-37.009 40.96a8.536 8.536 0 0 0 0 11.443l37.009 40.951-11.622 53.922a8.527 8.527 0 0 0 5.726 9.924l52.582 16.913 16.922 52.497c1.34 4.164 5.623 6.673 9.907 5.726l53.922-11.546 40.969 37.009a8.535 8.535 0 0 0 11.443 0l40.96-37.009 53.931 11.546c4.284.956 8.567-1.562 9.907-5.726l16.913-52.497 52.497-16.913a8.542 8.542 0 0 0 5.726-9.907l-11.546-53.931 37.009-40.96a8.535 8.535 0 0 0 0-11.442zm-52.591 44.202a8.562 8.562 0 0 0-2.005 7.501l10.846 50.662-49.323 15.889a8.542 8.542 0 0 0-5.513 5.513l-15.889 49.323-50.662-10.846c-2.688-.623-5.47.162-7.501 2.005l-38.485 34.765-38.485-34.765a8.506 8.506 0 0 0-5.717-2.202c-.597 0-1.195.06-1.775.179l-50.654 10.846-15.898-49.323a8.542 8.542 0 0 0-5.513-5.513l-49.391-15.889 10.914-50.645a8.55 8.55 0 0 0-2.005-7.518L41.37 213.333l34.765-38.477a8.536 8.536 0 0 0 2.005-7.518l-10.914-50.645 49.391-15.889a8.542 8.542 0 0 0 5.513-5.513L138.019 45.9l50.645 10.914a8.483 8.483 0 0 0 7.518-2.005l38.485-34.773 38.485 34.756c2.048 1.835 4.838 2.594 7.526 2.005l50.645-10.914 15.889 49.391a8.542 8.542 0 0 0 5.513 5.513l49.323 15.898-10.846 50.654a8.517 8.517 0 0 0 2.005 7.509l34.765 38.485-34.773 38.494zm90.325-217.583c-13.909-2.304-24.798-13.201-27.11-27.11C455.731 3.021 452.173 0 448 0s-7.731 3.021-8.414 7.142c-2.313 13.909-13.201 24.806-27.11 27.11-4.122.674-7.142 4.233-7.142 8.414s3.021 7.74 7.142 8.422c13.909 2.304 24.798 13.201 27.11 27.11.683 4.113 4.241 7.134 8.414 7.134s7.731-3.021 8.414-7.142c2.313-13.909 13.201-24.806 27.11-27.11 4.122-.674 7.142-4.241 7.142-8.414s-3.012-7.731-7.142-8.422zM448 54.818a49.965 49.965 0 0 0-12.16-12.151A49.86 49.86 0 0 0 448 30.516a50 50 0 0 0 12.16 12.151A50.159 50.159 0 0 0 448 54.818z"/>
</svg>
