<svg viewBox="0 0 400 400" aria-hidden="true">
  <!-- Icon made by Vitaly Gorbachev / flaticon.com/authors/vitaly-gorbachev - from flaticon.com - licensed CC 3.0 BY -->
  <path d="M80 40h56v16H80zm72 0h40v16h-40zM80 72h16v16H80zm32 0h80v16h-80zm40 272h16v16h-16zm32 0h64v16h-64z"/>
  <path d="M368 224v-43.312l-38.664-38.664C333.528 135.696 336 128.136 336 120c0-22.056-17.944-40-40-40s-40 17.944-40 40 17.944 40 40 40c8.136 0 15.696-2.472 22.024-6.664L352 187.312V224H0v96h38.936l9.128 72.992 15.872-1.984L55.064 320l-6-48h301.872l-6 48-8.872 71.008 15.872 1.984L361.064 320H400v-96h-32zm-72-80c-13.232 0-24-10.768-24-24s10.768-24 24-24 24 10.768 24 24-10.768 24-24 24zm88 160h-20.936l6-48H30.936l6 48H16v-64h368v64z"/>
  <path d="M112 304v96h176v-96H112zm160 80H128v-64h144v64zM32 0v179.312L83.312 128H240V0H32zm192 112H76.688L48 140.688V16h176v96z"/>
</svg>
